<svg xmlns="http://www.w3.org/2000/svg" xmlns:xlink="http://www.w3.org/1999/xlink" version="1.1" x="0px" y="0px" viewBox="0 0 77.8 85.625" style="enable-background:new 0 0 77.8 68.5;" xml:space="preserve"><style type="text/css">
	.st0{stroke:#000000;stroke-miterlimit:10;}
	.st1{fill:none;stroke:#000000;stroke-miterlimit:10;}
</style><path class="st0" d="M5.8,39c-1,1.1,0.6,4.1,2,5.7c1.9,2.2,5.3,4.1,6.5,3.1c1.2-1,0.3-5.1-2.2-7.3C10.1,38.7,6.8,37.9,5.8,39z"/><path class="st0" d="M22.3,47.3c-0.8,0.6,0.2,3.6,2,5.7c2.2,2.5,5.8,3.9,6.5,3.1c0.8-0.9-1.6-4.3-4-6.4  C25.7,48.6,23.1,46.6,22.3,47.3z"/><path class="st0" d="M38.8,54.1c-0.6,0.5,1,3.7,3.3,5.9c1.9,1.8,4.6,3.5,5.2,2.9c0.6-0.6-1.5-4-4.1-6.2  C41.8,55.4,39.3,53.6,38.8,54.1z"/><path class="st0" d="M7.9,32.7c-0.1-0.3-0.2-0.8,0.7-2.8c0.6-1.3,1.1-2.4,2.3-3.8c0.4-0.5,1.7-2.1,4.6-4.1c2.7-1.9,3.1-1.6,6.1-3.7  c1.2-0.8,2.7-1.9,4.5-3.5c2.3-2.1,2.3-2.7,4-4c0.8-0.6,2.1-1.1,4.7-2.2c2.3-1,3.4-1.4,5-1.9c2.1-0.6,3.5-1.1,5.3-1.2  c1.8-0.1,4.4-0.3,6.8,1.1c1.9,1.1,1.5,2.1,3.7,3.2c1.3,0.7,1.8,0.5,5,1.5c2.2,0.7,3.3,1,4.5,1.7c1.9,1,3.1,2.2,3.4,2.5  c0.6,0.6,1.9,2,2.8,4.1c0.5,1.2,1.3,3,0.9,5.2c-0.4,2.3-1.5,2.3-2.5,5.3c-0.8,2.4-0.1,2.6-0.9,4.8c-0.8,2.3-1.7,2.5-3.3,5.3  c-1.5,2.5-1,2.6-2.8,6.2c-1.6,3.3-3.1,5.2-4.1,6.4c-1.7,2.1-3.4,4.1-4.9,3.7c-0.9-0.2-1.3-1.2-2.3-3.2c-1.2-2.3-0.8-2.8-1.8-4.2  c-0.1-0.1-2.1-2.7-4.2-2.3c-0.6,0.1-1,0.4-1.7,1c-1.6,1.3-1.5,2.2-2.3,2.3c-1.3,0.2-2.7-1.4-3.4-2.5c-0.6-1.1-0.8-2.1-0.8-2.7  c0-0.1-0.1-0.3-0.1-0.6c-0.2-1.1,0-1.5-0.1-1.9c-0.2-0.6-0.7-0.9-1.3-1.2c-3.1-1.8-4.7-2.8-5.8-2.7c-0.3,0-2,0.2-3.2,1.4  c-0.8,0.9-0.7,1.5-1.3,1.8c-1.3,0.6-3.8-0.8-4.3-2.7c-0.2-0.8,0.1-0.9,0-2c-0.3-1.9-1.5-3.2-1.7-3.3c-0.4-0.4-2.2-2-4.2-1.7  c-1.9,0.3-2.1,2.1-3.8,2.2C10,34.4,8.4,33.8,7.9,32.7z"/><line class="st1" x1="5.8" y1="39" x2="14.8" y2="32.3"/><line class="st1" x1="14.3" y1="47.8" x2="21.3" y2="39.1"/><line class="st1" x1="22.3" y1="47.3" x2="27.6" y2="39.1"/><line class="st1" x1="30.8" y1="56" x2="37.1" y2="42.8"/><line class="st1" x1="38.8" y1="54.1" x2="42.7" y2="49"/><line class="st1" x1="47.2" y1="62.9" x2="51.4" y2="53.5"/><text x="0" y="83.5" fill="#000000" font-size="5px" font-weight="bold" font-family="'Helvetica Neue', Helvetica, Arial-Unicode, Arial, Sans-serif">Created by Kevin Ok</text><text x="0" y="88.5" fill="#000000" font-size="5px" font-weight="bold" font-family="'Helvetica Neue', Helvetica, Arial-Unicode, Arial, Sans-serif">from the Noun Project</text></svg>