<?xml version="1.0" standalone="no"?>
<!DOCTYPE svg PUBLIC "-//W3C//DTD SVG 20010904//EN"
 "http://www.w3.org/TR/2001/REC-SVG-20010904/DTD/svg10.dtd">
<svg version="1.0" xmlns="http://www.w3.org/2000/svg"
 width="1254.000000pt" height="1254.000000pt" viewBox="0 0 1254.000000 1254.000000"
 preserveAspectRatio="xMidYMid meet">

<g transform="translate(0.000000,1254.000000) scale(0.100000,-0.100000)"
fill="#000000" stroke="none">
<path d="M0 6270 l0 -6270 6270 0 6270 0 0 6270 0 6270 -6270 0 -6270 0 0
-6270z m6507 4184 c74 -192 143 -371 153 -399 10 -27 39 -104 65 -170 25 -66
106 -280 180 -475 73 -195 154 -409 180 -475 50 -132 116 -308 224 -602 l71
-193 0 -377 -1 -378 -75 195 c-81 210 -118 307 -169 440 -109 286 -281 733
-323 840 l-49 125 -529 0 -528 0 -36 -95 c-118 -307 -175 -450 -180 -450 -3 0
-15 19 -27 43 l-21 44 113 284 c62 156 172 435 245 619 204 517 422 1061 538
1343 8 21 20 36 25 34 6 -2 71 -160 144 -353z m-872 -99 c-5 -2 -54 -17 -108
-35 -165 -53 -387 -153 -535 -242 -72 -43 -85 -48 -100 -36 -15 11 -15 11 -5
-3 11 -13 1 -23 -63 -68 -41 -28 -80 -49 -86 -45 -6 4 -8 3 -4 -4 3 -6 -21
-31 -56 -59 -35 -26 -87 -69 -116 -96 -31 -28 -58 -45 -65 -41 -7 4 -9 3 -4
-1 9 -11 -43 -66 -55 -59 -5 3 -7 1 -6 -4 4 -11 -133 -164 -140 -157 -3 3 -1
10 6 17 8 8 8 17 1 30 -6 11 -8 22 -5 25 3 3 9 -4 14 -16 7 -21 9 -21 22 -6
10 12 11 18 1 28 -10 9 -11 8 -5 -8 7 -18 6 -18 -9 -6 -9 7 -14 18 -11 25 4 6
-6 -1 -21 -15 -15 -15 -24 -32 -21 -38 4 -6 11 -9 16 -6 4 2 7 -8 6 -23 -1
-16 -23 -54 -57 -97 -205 -257 -365 -565 -463 -890 -19 -62 -37 -134 -41 -161
-4 -27 -13 -74 -21 -104 -32 -130 -47 -338 -41 -580 6 -232 17 -333 61 -539
84 -387 259 -761 518 -1108 229 -307 583 -605 971 -818 37 -20 67 -39 67 -41
0 -26 -356 193 -518 318 -34 27 -68 46 -74 42 -6 -4 -8 -3 -4 4 3 5 -19 33
-51 60 -48 42 -59 48 -75 39 -25 -16 -23 -30 5 -22 15 4 18 3 9 -3 -11 -7 7
-27 72 -82 90 -76 116 -104 44 -48 -107 83 -272 235 -362 336 -97 107 -144
169 -99 129 23 -20 36 -12 22 14 -5 11 -7 19 -5 19 3 0 12 -12 19 -26 8 -15
17 -22 20 -17 8 13 -41 85 -53 78 -6 -3 -7 0 -4 8 3 8 -3 21 -14 28 -11 8 -20
17 -21 22 -3 19 -54 86 -62 81 -5 -3 -7 -9 -4 -14 3 -5 0 -12 -6 -16 -7 -4 -9
-3 -5 4 3 6 2 13 -3 16 -22 14 -18 -13 6 -49 14 -21 21 -35 15 -31 -12 7 -142
201 -142 211 0 4 -9 20 -21 36 -40 56 -196 385 -187 395 2 1 20 -34 40 -79 21
-45 42 -81 48 -79 6 1 9 -2 5 -8 -4 -6 8 -42 26 -80 29 -64 33 -69 49 -55 9 8
20 12 23 8 12 -12 7 12 -7 29 -15 20 -27 14 -19 -10 4 -14 3 -15 -5 -2 -7 9
-7 18 -1 26 11 14 -23 98 -36 86 -5 -4 -5 -2 -1 5 3 6 -2 29 -13 50 -27 52
-117 290 -126 331 -3 17 -10 32 -15 32 -4 0 -7 6 -6 13 2 24 -28 147 -36 147
-5 0 -7 4 -4 9 4 5 2 31 -4 58 -30 149 -40 225 -51 369 -13 186 -5 439 18 567
13 74 14 95 3 127 -10 30 -10 47 -2 72 8 21 10 24 7 8 -2 -14 -1 -31 4 -38 4
-8 15 20 25 70 10 46 24 99 31 118 8 19 17 54 20 78 4 23 10 42 14 42 8 0 32
86 33 117 0 13 4 20 9 17 5 -3 12 3 15 13 4 10 15 37 26 60 10 23 22 57 25 77
3 20 9 33 14 30 12 -7 51 74 43 88 -4 7 -3 8 4 4 8 -5 10 -2 6 8 -3 9 -1 16 5
16 5 0 15 10 22 21 8 15 8 19 0 15 -6 -4 -11 -3 -11 2 0 6 7 13 16 16 8 3 12
11 8 17 -5 8 -3 9 6 4 10 -6 12 -4 7 8 -4 10 -2 16 6 14 7 -1 11 6 11 15 -1
10 2 16 6 13 19 -11 16 11 -3 30 -11 11 -16 14 -12 6 5 -9 4 -12 -3 -7 -13 8
-36 -30 -27 -45 4 -5 1 -16 -5 -24 -7 -8 -9 -15 -6 -15 4 0 -1 -12 -12 -27
-11 -16 -20 -30 -20 -33 -2 -20 -16 -39 -25 -33 -6 4 -3 11 8 20 11 7 16 13
12 13 -4 0 4 23 18 50 37 73 22 61 -18 -15 -31 -58 -33 -66 -20 -85 8 -12 10
-20 4 -20 -6 0 -11 5 -11 10 0 6 -5 10 -11 10 -6 0 -8 -7 -5 -15 8 -20 14 -42
8 -31 -2 4 -9 2 -14 -5 -6 -10 -7 -6 -3 11 5 24 5 24 -10 -3 -13 -22 -14 -32
-5 -42 7 -8 10 -20 7 -27 -3 -8 -8 -4 -14 11 l-10 25 -8 -30 c-5 -16 -8 -32
-7 -36 1 -5 -2 -8 -7 -8 -5 0 -7 -10 -4 -22 3 -16 2 -19 -4 -10 -14 18 -66
-132 -66 -188 0 -32 -1 -36 -4 -15 -5 28 -7 25 -24 -29 -12 -36 -16 -68 -12
-85 9 -32 5 -63 -9 -76 -7 -7 -9 6 -5 40 l6 50 -15 -55 c-76 -288 -103 -592
-79 -916 13 -182 28 -292 53 -399 6 -22 11 -32 12 -22 1 9 3 21 4 26 0 5 3 12
6 15 3 3 6 -30 6 -72 1 -71 26 -168 91 -350 4 -10 3 -14 0 -11 -4 3 -22 50
-41 105 -248 720 -193 1525 148 2192 80 155 140 245 166 247 25 2 36 -13 21
-28 -7 -7 -11 -7 -11 -1 0 6 -7 11 -15 11 -9 0 -14 -5 -12 -11 3 -6 9 -10 15
-9 5 1 8 -7 4 -19 l-5 -22 -9 23 c-4 12 -12 20 -18 16 -10 -6 8 -45 21 -45 14
0 70 103 61 112 -6 6 -13 5 -17 -3 -5 -8 -4 -10 3 -5 7 4 12 3 12 -3 0 -14
-18 -23 -25 -12 -3 6 -12 8 -20 4 -28 -10 -15 16 58 114 85 114 129 167 200
242 47 50 51 52 64 35 7 -10 13 -13 13 -8 0 6 -5 15 -12 22 -9 9 5 26 57 74
345 318 757 548 1075 601 30 5 139 7 125 2z m1608 -35 c110 -31 279 -105 407
-180 518 -300 929 -759 1150 -1285 89 -209 157 -451 195 -690 22 -138 31 -537
15 -691 -49 -485 -202 -920 -465 -1320 -93 -141 -224 -306 -238 -297 -6 3 -7
1 -3 -5 7 -12 -158 -190 -209 -225 -16 -11 -27 -17 -23 -12 4 4 3 15 -2 25
-12 22 33 70 45 49 5 -7 4 -10 -1 -7 -15 8 -43 -28 -33 -43 9 -14 10 -12 13
14 0 6 6 12 13 12 6 0 27 15 48 33 28 27 34 36 25 47 -7 8 -9 19 -5 25 9 15
-4 12 -21 -5 -9 -8 -12 -20 -8 -26 5 -8 3 -9 -6 -4 -8 5 -18 2 -24 -6 -6 -8
-37 -37 -68 -66 -30 -29 -53 -55 -49 -59 3 -4 0 -4 -6 0 -7 4 -13 3 -13 -1 0
-5 -23 -26 -50 -46 -28 -21 -48 -42 -45 -46 2 -5 -3 -8 -12 -7 -11 1 -18 -6
-18 -19 0 -12 -11 -26 -28 -34 -20 -10 -25 -17 -17 -25 8 -8 13 -7 20 4 5 8
13 15 17 15 10 0 119 81 127 94 4 5 -1 14 -10 19 -15 8 -15 10 0 15 10 4 19 1
22 -8 6 -15 10 -13 55 28 10 9 19 14 19 10 0 -19 -180 -161 -313 -247 -132
-86 -232 -134 -334 -160 -51 -13 -93 -22 -93 -21 0 1 62 37 138 80 316 179
571 382 783 625 368 422 609 953 681 1505 21 159 18 641 -5 785 -22 136 -74
351 -115 470 -196 568 -583 1058 -1089 1379 -230 146 -489 266 -719 335 -10 3
18 3 62 1 46 -3 128 -18 187 -35z m-2953 -764 c0 -3 -4 -8 -10 -11 -5 -3 -10
-1 -10 4 0 6 5 11 10 11 6 0 10 -2 10 -4z m895 -713 c15 -27 44 -75 65 -108
48 -76 272 -445 465 -765 166 -275 389 -641 508 -834 l80 -128 17 28 c28 46
593 952 646 1036 27 43 52 78 55 78 3 0 13 -19 22 -42 16 -41 16 -43 -7 -82
-112 -187 -835 -1331 -842 -1331 -9 0 -193 294 -193 310 -1 6 8 -1 19 -15 11
-14 20 -20 20 -14 0 14 -35 46 -42 39 -7 -7 -438 693 -438 710 0 3 5 3 12 -1
7 -4 8 -3 4 5 -4 6 -11 9 -16 6 -5 -3 -61 81 -126 187 -64 106 -127 209 -139
228 -21 33 -106 172 -216 354 -26 43 -53 84 -59 90 -8 8 -10 -228 -8 -914 4
-1034 1 -996 73 -1059 31 -27 88 -51 123 -51 6 0 12 -7 12 -16 0 -8 -4 -13 -9
-9 -5 3 -120 6 -255 6 -233 1 -299 9 -203 24 23 4 57 16 75 26 19 11 38 16 44
13 7 -4 8 -2 4 4 -4 6 2 24 13 39 11 16 25 49 31 75 15 70 15 1914 -1 1971 -6
23 -19 56 -30 73 -10 17 -16 33 -13 36 3 4 0 9 -7 14 -8 4 -10 3 -5 -4 10 -17
1 -15 -36 8 -18 11 -42 21 -53 22 -11 1 21 5 70 8 l90 7 -110 1 c-137 1 -127
0 -120 12 4 6 91 10 230 10 l223 0 27 -47z m2745 33 c0 -9 -17 -16 -50 -20
-71 -10 -128 -56 -152 -123 -17 -49 -18 -114 -18 -1010 0 -670 3 -970 11 -998
23 -83 85 -138 170 -149 27 -4 49 -11 49 -16 0 -5 -148 -9 -355 -9 -195 -1
-355 3 -355 8 0 4 26 14 58 21 71 16 123 65 141 133 15 60 16 1907 1 1907 -5
0 -10 -4 -10 -9 0 -12 -93 -160 -101 -161 -6 0 -35 101 -32 112 3 8 110 181
167 271 l37 57 219 0 c180 0 220 -3 220 -14z m-4077 -21 c-7 -21 -13 -19 -13
6 0 11 4 18 10 14 5 -3 7 -12 3 -20z m-33 -102 c0 -7 -6 -10 -14 -7 -8 3 -12
13 -9 25 5 16 8 18 14 7 5 -7 9 -18 9 -25z m-34 -58 c-9 -9 -16 -24 -16 -32 0
-9 -3 -14 -6 -10 -3 3 0 22 7 41 8 22 17 32 22 27 6 -6 4 -16 -7 -26z m-139
-606 c-3 -28 -8 -54 -11 -57 -8 -7 -7 57 0 86 11 39 16 24 11 -29z m-17 -155
c0 -8 -4 -12 -10 -9 -5 3 -10 10 -10 16 0 5 5 9 10 9 6 0 10 -7 10 -16z m-13
-86 c-2 -13 -4 -5 -4 17 -1 22 1 32 4 23 2 -10 2 -28 0 -40z m0 -160 c-3 -7
-5 -2 -5 12 0 14 2 19 5 13 2 -7 2 -19 0 -25z m22 -232 c1 -55 -5 -42 -12 24
-3 34 -2 47 3 35 5 -11 9 -38 9 -59z m18 -148 c-3 -7 -5 -2 -5 12 0 14 2 19 5
13 2 -7 2 -19 0 -25z m120 -510 c-3 -7 -5 -2 -5 12 0 14 2 19 5 13 2 -7 2 -19
0 -25z m2793 -350 c6 -29 23 -107 38 -173 20 -93 26 -148 26 -245 1 -118 -1
-128 -28 -184 -16 -32 -42 -73 -58 -92 -32 -36 -138 -107 -178 -118 -14 -4 7
11 45 32 171 97 239 246 205 452 -7 41 -12 81 -13 88 0 6 -4 12 -9 12 -5 0 -7
-8 -4 -17 23 -78 32 -238 14 -226 -5 2 -8 25 -8 51 0 55 -44 312 -66 389 l-15
53 -240 -2 c-205 -2 -240 -5 -244 -18 -34 -110 -68 -356 -63 -460 10 -227 240
-390 423 -300 90 45 174 148 190 233 4 20 11 37 16 37 9 0 -17 -92 -38 -134
-20 -39 -96 -111 -150 -143 -34 -20 -63 -27 -117 -31 -66 -4 -75 -2 -133 29
-144 79 -196 165 -214 354 l-7 80 2 -105 c1 -98 4 -109 36 -174 26 -51 49 -80
88 -111 54 -42 136 -88 158 -88 6 0 17 -22 24 -49 8 -26 16 -44 19 -39 11 17
1 -373 -11 -429 -15 -78 -55 -113 -150 -135 -40 -9 -81 -18 -90 -21 -10 -3
-18 -1 -18 4 0 6 29 15 65 21 127 22 168 53 186 138 15 74 8 429 -10 464 -7
15 -39 39 -79 59 -129 65 -206 165 -233 299 -15 76 -3 182 42 386 16 71 29
138 29 147 0 17 19 18 279 18 l279 0 12 -52z m530 -30 c18 -82 29 -531 19
-713 -7 -106 -6 -220 1 -339 5 -99 10 -230 10 -293 0 -101 -2 -113 -17 -113
-15 0 -15 2 -4 9 13 8 13 51 -1 328 -8 182 -11 328 -6 341 4 13 7 150 6 305
-2 210 -3 249 -8 152 -3 -87 -8 -122 -13 -105 -8 24 -9 24 -17 5 -6 -14 -9 7
-11 65 -2 83 -2 84 -10 35 -5 -27 -9 -63 -9 -80 1 -23 -2 -27 -11 -18 -6 6
-12 31 -12 55 0 61 -15 19 -18 -52 -2 -51 -3 -49 -9 25 -6 72 -7 66 -8 -58 -1
-89 -6 -136 -12 -132 -25 15 2 391 36 505 22 74 51 130 68 130 9 0 19 -20 26
-52z m-1705 -216 c4 -170 -2 -241 -16 -177 -5 21 -7 8 -8 -40 -1 -54 4 -78 19
-102 11 -18 25 -33 31 -33 6 0 3 7 -5 16 -20 19 -20 25 -1 18 11 -5 14 -2 9
12 -4 11 -4 16 0 12 5 -4 9 -22 11 -40 1 -18 10 -46 19 -63 20 -38 20 -110 1
-440 -8 -137 -15 -281 -15 -318 0 -61 2 -69 23 -77 21 -8 20 -9 -7 -9 l-28 -1
5 158 c3 86 10 263 17 393 7 130 10 248 6 262 -3 15 -24 44 -45 65 -25 24 -42
52 -46 74 -4 19 -2 126 4 237 6 111 11 209 11 218 0 9 2 14 5 11 3 -2 7 -82
10 -176z m57 -177 c-9 -43 -34 -67 -53 -48 -9 9 -7 11 8 7 12 -3 23 -2 26 3 3
5 7 92 8 194 1 101 4 189 8 194 9 15 13 -305 3 -350z m77 83 c1 -121 2 -128
21 -128 19 0 20 7 20 194 0 119 4 197 10 201 6 4 10 -6 10 -22 0 -15 5 -118
11 -229 13 -225 9 -245 -54 -293 -30 -23 -29 -21 6 16 l38 40 0 148 c-1 82 -3
151 -6 153 -3 3 -5 -42 -5 -100 0 -77 -4 -109 -14 -117 -15 -13 -46 -5 -46 12
0 7 -4 7 -12 -1 -14 -14 -48 -16 -48 -3 0 5 8 7 18 4 17 -4 20 4 25 58 4 34 8
125 9 203 1 125 2 133 8 66 4 -41 8 -132 9 -202z m-1349 -100 c19 -24 26 -37
17 -29 -19 15 -61 71 -54 71 2 0 19 -19 37 -42z m2357 -47 c-13 -113 -99 -206
-220 -239 -84 -23 -213 51 -261 150 -14 29 -28 72 -32 96 l-7 42 263 0 263 0
-6 -49z m560 -43 c-3 -8 -6 -5 -6 6 -1 11 2 17 5 13 3 -3 4 -12 1 -19z m-30
-155 c-2 -16 -4 -5 -4 22 0 28 2 40 4 28 2 -13 2 -35 0 -50z m-42 -100 c14
-21 25 -33 25 -28 0 6 -7 19 -15 29 -8 11 -15 29 -14 40 0 16 3 14 11 -9 6
-16 14 -32 18 -35 4 -3 3 -66 -1 -140 -20 -312 -27 -475 -22 -480 5 -5 10 -6
41 -9 16 -2 16 -2 -1 -12 -9 -5 -22 -7 -27 -4 -6 3 -10 -5 -10 -19 0 -19 6
-26 28 -29 20 -4 18 -4 -8 -3 l-35 1 2 165 c1 91 7 233 13 317 10 140 10 154
-7 183 -48 85 -53 97 -52 145 l1 50 14 -63 c7 -34 25 -79 39 -99z m-18 135
c-3 -8 -6 -5 -6 6 -1 11 2 17 5 13 3 -3 4 -12 1 -19z m90 -40 c-2 -13 -4 -3
-4 22 0 25 2 35 4 23 2 -13 2 -33 0 -45z m-1581 17 c-3 -13 -1 -120 5 -237 25
-504 27 -578 11 -578 -4 0 -6 34 -4 75 2 41 -4 180 -12 309 -21 314 -21 456 1
456 3 0 2 -11 -1 -25z m817 -170 c-3 -9 -8 -14 -10 -11 -3 3 -2 9 2 15 9 16
15 13 8 -4z m-846 -72 c-2 -16 -4 -3 -4 27 0 30 2 43 4 28 2 -16 2 -40 0 -55z
m825 -188 c-3 -227 -3 -236 19 -275 25 -44 58 -61 162 -80 37 -7 70 -16 73
-21 7 -11 10 -12 -82 7 -93 19 -150 52 -170 99 -20 48 -20 505 0 505 0 0 0
-106 -2 -235z m1653 195 c-3 -5 -10 -10 -16 -10 -5 0 -9 5 -9 10 0 6 7 10 16
10 8 0 12 -4 9 -10z m-1678 -72 c-3 -7 -5 -2 -5 12 0 14 2 19 5 13 2 -7 2 -19
0 -25z m803 -40 c0 -31 -3 -39 -11 -31 -7 7 -8 24 -4 42 9 43 15 39 15 -11z
m-2250 -43 c126 -87 199 -127 218 -120 9 3 13 3 9 -2 -4 -4 7 -15 25 -25 l33
-18 -30 6 c-44 9 -334 188 -351 216 -9 14 0 9 96 -57z m2217 -192 c-3 -10 -5
-4 -5 12 0 17 2 24 5 18 2 -7 2 -21 0 -30z m-1900 21 c-3 -3 -12 -4 -19 -1 -8
3 -5 6 6 6 11 1 17 -2 13 -5z m1118 -249 c6 -2 -30 -3 -80 -4 -49 0 -82 4 -71
8 17 7 129 4 151 -4z m155 5 c19 -5 11 -7 -30 -7 -38 -1 -49 2 -35 8 24 9 33
9 65 -1z m765 -136 c242 -3 476 -10 520 -14 44 -4 -80 -4 -275 -1 -460 8
-1820 8 -2295 0 -258 -4 -326 -4 -225 3 341 20 1391 26 2275 12z m-1575 -33
c14 -4 -24 -6 -85 -3 -60 2 -114 5 -120 7 -20 7 181 3 205 -4z m1700 4 c-31
-8 -239 -11 -235 -4 3 4 60 7 127 7 68 0 116 -1 108 -3z m83 -2 c-7 -2 -21 -2
-30 0 -10 3 -4 5 12 5 17 0 24 -2 18 -5z m-1360 -10 c-24 -2 -62 -2 -85 0 -24
2 -5 4 42 4 47 0 66 -2 43 -4z m265 0 c-26 -2 -71 -2 -100 0 -29 2 -8 3 47 3
55 0 79 -1 53 -3z m435 0 c-62 -2 -165 -2 -230 0 -65 1 -14 3 112 3 127 0 180
-2 118 -3z m164 1 c-3 -3 -12 -4 -19 -1 -8 3 -5 6 6 6 11 1 17 -2 13 -5z
m-4947 -495 c0 -5 63 -160 139 -346 305 -742 291 -710 329 -729 44 -22 33 -24
-109 -24 -113 1 -140 3 -124 12 48 27 46 54 -13 203 l-48 120 -240 3 -241 2
-42 -104 c-61 -155 -65 -201 -19 -224 18 -8 2 -11 -81 -11 -104 -1 -112 2 -69
23 34 17 58 59 125 222 34 82 116 282 183 444 67 162 136 330 153 372 28 67
34 75 45 61 6 -9 12 -20 12 -24z m3251 -90 c56 -134 118 -286 196 -474 28 -66
81 -194 118 -285 76 -186 87 -205 130 -231 l30 -19 -145 0 -145 1 28 20 c16
13 27 30 27 45 0 13 -22 79 -49 147 l-50 122 -242 0 -241 0 -51 -127 c-55
-139 -56 -167 -9 -192 25 -14 21 -15 -78 -16 l-105 0 31 19 c44 27 62 60 149
276 43 105 92 226 110 270 18 44 50 121 70 170 20 50 63 153 95 230 31 77 60
149 64 159 3 10 9 17 11 14 3 -3 28 -61 56 -129z m5587 -54 c38 -93 107 -260
152 -370 211 -514 228 -549 275 -573 15 -8 -20 -11 -125 -11 -134 0 -143 1
-117 15 39 21 36 58 -20 201 l-48 123 -241 0 -241 0 -47 -119 c-58 -152 -59
-178 -1 -209 16 -9 -3 -11 -85 -12 l-105 0 32 19 c39 25 56 60 221 466 231
569 267 654 273 647 3 -4 38 -83 77 -177z m-1048 149 c44 -14 89 -23 98 -20
16 5 18 -5 20 -97 l2 -102 -32 58 c-36 66 -104 122 -175 143 -60 18 -97 18
-163 -2 -134 -40 -188 -181 -114 -294 33 -49 84 -82 256 -164 217 -102 288
-184 288 -332 0 -59 -5 -81 -31 -132 -35 -71 -71 -104 -154 -144 -107 -50
-235 -47 -388 8 -38 13 -78 24 -90 24 -21 0 -22 4 -22 109 0 106 6 129 19 75
11 -42 63 -112 108 -144 173 -125 417 -73 458 98 21 88 -10 165 -89 225 -26
20 -112 67 -192 106 -164 79 -225 126 -263 203 -35 70 -36 161 -2 233 29 64
109 136 173 158 76 25 197 22 293 -9z m-6705 1 c-41 -29 -54 -49 -60 -89 -3
-22 -5 -250 -3 -506 l3 -465 175 0 c147 0 183 3 225 19 55 20 97 55 126 101
23 37 23 35 3 -76 l-17 -89 -361 0 c-314 1 -358 3 -335 15 53 29 54 33 57 530
3 405 1 465 -13 502 -9 24 -20 43 -24 43 -4 0 -16 7 -27 15 -17 13 -4 14 126
14 128 0 143 -1 125 -14z m1489 -17 c3 -18 8 -58 12 -88 l6 -55 -20 31 c-47
73 -95 91 -255 96 l-107 3 0 -491 c0 -333 4 -501 11 -523 6 -17 23 -38 38 -46
24 -13 14 -14 -112 -15 -90 0 -136 4 -132 10 3 6 12 10 19 10 8 0 21 15 30 34
14 30 16 94 16 528 l0 495 -102 -4 c-169 -6 -227 -28 -262 -95 l-17 -33 6 65
c3 36 9 75 12 88 l5 22 423 0 423 0 6 -32z m2382 -391 c107 -231 199 -434 206
-453 6 -19 15 -34 18 -34 8 0 -5 -28 217 470 102 228 190 421 195 428 13 15
208 17 208 2 0 -5 -9 -10 -19 -10 -11 0 -29 -12 -40 -26 -21 -26 -21 -36 -21
-505 0 -286 4 -488 10 -503 5 -14 24 -35 42 -46 l33 -20 -140 0 -140 0 30 24
30 24 2 474 c2 306 -1 467 -7 457 -11 -19 -272 -598 -335 -744 -24 -55 -58
-131 -75 -169 l-31 -69 -78 169 c-42 93 -142 311 -221 484 -79 173 -147 320
-152 325 -6 6 -8 -177 -6 -440 3 -409 5 -453 21 -482 10 -18 24 -33 32 -33 7
0 17 -4 20 -10 4 -6 -32 -10 -102 -10 -92 0 -104 2 -84 13 13 6 34 25 45 40
21 28 21 37 21 512 l0 483 -24 26 c-14 14 -30 26 -37 26 -7 0 -16 5 -19 10 -5
7 29 10 101 8 l108 -3 192 -418z m1928 356 c4 -38 9 -77 12 -88 4 -20 4 -20
-8 0 -29 44 -78 83 -122 94 -25 6 -115 14 -201 16 l-155 6 0 -245 0 -244 103
0 c143 0 214 12 243 39 13 12 24 28 24 36 0 7 3 13 8 13 4 0 5 -51 3 -112 -3
-62 -6 -103 -8 -92 -2 12 -15 32 -29 45 -24 23 -33 24 -185 27 l-159 4 0 -257
0 -257 178 4 c156 4 183 7 229 27 55 24 83 49 107 96 20 38 20 21 1 -78 -8
-43 -15 -81 -15 -83 0 -2 -161 -4 -357 -4 l-358 0 33 20 c18 11 37 32 43 47 6
17 9 201 7 509 -3 458 -4 483 -22 503 -11 12 -25 21 -32 21 -7 0 -16 5 -19 10
-4 7 110 10 333 10 l340 0 6 -67z m-4714 -1533 c41 -21 45 -27 32 -47 -5 -8
-13 -6 -30 7 -15 12 -18 20 -10 23 18 7 -37 27 -73 27 -33 0 -105 -27 -96 -36
3 -3 14 -1 25 5 35 19 39 12 5 -9 -82 -50 -84 -172 -4 -229 35 -25 99 -28 141
-6 25 13 30 22 30 50 0 35 0 35 -45 35 -33 0 -45 4 -45 15 0 12 13 15 68 13
l67 -1 -65 -7 c-61 -6 -62 -7 -17 -8 l48 -2 -2 -57 c-2 -54 -11 -72 -33 -73
-6 0 -1 7 10 15 17 13 17 14 2 15 -9 0 -20 -4 -23 -10 -3 -5 -30 -10 -59 -10
-62 0 -113 28 -135 75 -9 18 -16 24 -19 17 -2 -8 10 -32 28 -54 30 -37 31 -39
7 -23 -33 21 -60 90 -54 141 3 37 4 37 5 -9 3 -64 22 -52 22 13 0 27 5 52 10
55 6 3 10 12 10 18 -1 7 -10 1 -20 -12 -11 -13 -20 -19 -20 -13 0 19 53 74 85
88 44 19 110 17 155 -6z m1015 9 c-60 -10 -93 -26 -101 -51 -10 -31 6 -74 31
-88 14 -7 23 -15 20 -18 -12 -12 -55 31 -60 62 -12 64 37 106 120 104 40 0 40
0 -10 -9z m643 -3 c3 -3 -57 -7 -134 -7 -86 -1 -128 -4 -109 -9 l30 -8 -32 -1
c-29 -1 -44 15 -29 30 6 6 267 1 274 -5z m1076 -20 c58 -44 81 -124 55 -193
-13 -35 -68 -93 -88 -93 -11 0 -10 4 5 15 25 19 15 19 -31 -1 -35 -14 -54 -14
-109 3 -12 3 -16 1 -12 -6 5 -7 1 -8 -10 -4 -11 4 -13 8 -6 11 7 2 4 11 -9 25
-44 46 -52 127 -20 190 22 44 19 47 -15 10 l-25 -28 15 31 c36 75 175 97 250
40z m1371 -53 c21 -49 53 -123 71 -165 18 -43 30 -78 26 -78 -4 0 -36 69 -72
153 -53 122 -70 152 -85 152 -16 0 -19 -6 -17 -28 3 -25 -46 -153 -54 -144 -2
2 7 32 21 67 41 105 28 93 -20 -19 -46 -106 -52 -127 -35 -116 6 3 10 3 10 0
0 -10 -30 -65 -36 -65 -2 0 0 9 6 19 15 30 12 48 -5 25 -12 -16 10 42 102 263
4 10 17 17 44 22 3 0 23 -38 44 -86z m-3595 50 c48 -102 120 -278 117 -286 -1
-5 -16 22 -31 61 l-29 71 -18 -22 c-10 -12 -18 -16 -19 -9 0 6 4 12 10 12 9 0
-7 43 -49 129 -11 25 -19 46 -16 49 4 4 43 -76 65 -134 6 -15 13 -24 16 -21 3
3 -11 42 -32 86 -27 59 -42 81 -53 79 -11 -3 -15 -13 -14 -31 1 -15 -11 -57
-27 -92 -16 -36 -26 -66 -22 -66 4 -1 31 -1 60 1 32 1 52 -2 52 -9 0 -13 -98
-15 -118 -3 -10 7 -9 16 3 45 17 42 20 71 5 47 -17 -27 -11 -3 16 59 21 48 31
61 49 61 14 0 26 -10 35 -27z m600 9 c18 -15 20 -20 8 -29 -10 -9 -19 -7 -38
8 -21 17 -22 19 -3 10 34 -17 40 -12 13 9 -14 11 -20 20 -14 20 7 0 22 -8 34
-18z m1039 3 c51 -26 58 -95 13 -138 -15 -15 -32 -27 -36 -27 -4 0 6 12 23 26
23 19 31 34 31 57 -1 65 -40 87 -150 87 l-81 0 3 -155 c2 -85 0 -155 -4 -155
-5 0 -8 72 -8 160 l0 160 90 0 c60 0 101 -5 119 -15z m1462 -4 c28 -23 32 -83
6 -108 -10 -10 -17 -12 -17 -6 0 7 5 15 10 18 16 10 12 71 -6 86 -11 9 -55 16
-118 20 l-101 5 101 2 c86 2 105 -1 125 -17z m1074 3 c28 -18 46 -63 38 -96
-7 -28 -42 -68 -60 -68 -18 0 -17 -6 16 -53 48 -72 52 -83 30 -84 -14 -1 -31
17 -60 63 l-41 65 -47 -3 -46 -3 -6 -65 c-4 -45 -6 -19 -7 88 l-2 152 58 -2
57 -2 -52 -3 -53 -4 0 -65 0 -64 61 0 c69 0 96 11 109 46 10 26 -5 74 -24 74
-6 0 -4 4 4 10 22 14 -1 19 -105 23 l-90 3 98 2 c74 2 103 -2 122 -14z m-3728
-27 c-12 -13 -24 -22 -26 -20 -6 4 30 43 40 43 5 0 -2 -10 -14 -23z m661 16
c-10 -2 -26 -2 -35 0 -10 3 -2 5 17 5 19 0 27 -2 18 -5z m470 0 c-15 -2 -42
-2 -60 0 -18 2 -6 4 27 4 33 0 48 -2 33 -4z m1365 -286 l42 -4 -47 -1 -48 -2
2 153 2 152 3 -147 4 -147 42 -4z m135 277 c28 -19 29 -63 2 -92 -18 -19 -32
-22 -95 -22 l-75 0 0 65 0 65 73 0 c49 0 80 -5 95 -16z m510 -86 c17 -43 29
-78 27 -78 -4 0 -85 169 -85 179 0 19 32 -36 58 -101z m391 55 l-1 -48 -8 40
c-7 37 -5 55 6 55 2 0 3 -21 3 -47z m-2982 -180 c-1 -43 -3 -10 -3 72 0 83 2
118 3 78 2 -40 2 -107 0 -150z m33 72 c0 -80 -3 -145 -7 -145 -5 0 -8 53 -7
118 0 136 2 172 9 172 3 0 5 -65 5 -145z m440 80 l0 -65 62 0 c50 0 66 4 85
22 27 25 29 54 7 86 -18 26 -12 29 10 6 24 -23 20 -71 -9 -99 -21 -22 -33 -25
-95 -25 -60 0 -70 3 -71 18 0 9 -1 41 -2 70 -1 28 1 52 6 52 4 0 7 -29 7 -65z
m-940 -49 c36 -10 73 -25 83 -33 24 -23 22 -81 -5 -110 -22 -24 -45 -32 -32
-11 5 8 2 9 -12 3 -43 -18 -84 -17 -125 4 -23 12 -44 20 -46 17 -3 -2 12 -14
34 -25 21 -11 34 -20 28 -21 -16 0 -75 39 -75 49 0 18 21 23 38 8 47 -40 147
-40 171 1 7 11 11 12 11 4 0 -23 20 -2 20 22 0 41 -31 67 -100 83 -63 14 -100
35 -100 56 0 6 10 1 23 -10 12 -11 51 -27 87 -37z m3449 -48 c-1 -59 -3 -67
-9 -40 -7 31 -3 112 6 112 2 0 4 -33 3 -72z m-5289 55 c0 -5 -255 -8 -568 -9
-396 0 -487 1 -302 5 421 10 870 12 870 4z m3298 -112 c24 -32 28 -46 12 -36
-21 13 -50 86 -49 122 2 37 2 36 8 -9 4 -26 17 -61 29 -77z m3592 109 c164 -5
70 -7 -312 -4 -359 2 -548 -1 -548 -7 0 -6 -4 -7 -10 -4 -5 3 -10 10 -10 16 0
11 525 10 880 -1z m-2457 -38 c28 -24 23 -86 -9 -111 -15 -12 -32 -21 -38 -21
-7 0 -6 3 1 8 7 5 -28 6 -77 4 l-90 -4 0 65 c0 36 3 68 8 70 4 3 7 -23 7 -56
l0 -62 67 -3 c61 -3 71 0 93 22 14 14 25 19 25 13 0 -7 -5 -18 -12 -25 -9 -9
-9 -12 0 -12 26 0 44 81 21 96 -8 4 -9 -1 -4 -17 7 -21 4 -19 -26 11 -46 47
-17 65 34 22z m-3576 -57 c0 -30 -3 -55 -8 -55 -5 0 -9 25 -9 55 0 72 15 72
17 0z m298 -20 c-15 -36 -31 -65 -36 -65 -4 0 7 31 24 69 40 87 49 84 12 -4z
m1673 68 l-48 -4 -2 -67 -2 -67 -3 59 c-5 81 -2 86 54 84 l48 -2 -47 -3z m87
-48 c16 -29 16 -12 0 30 -6 15 -4 14 11 -5 36 -46 74 -110 66 -110 -4 0 -16
14 -26 31 -12 20 -21 27 -26 20 -8 -14 -19 -2 -45 49 -20 41 -4 29 20 -15z
m1943 25 c13 -7 3 -9 -35 -10 -29 0 -53 3 -53 8 0 11 69 13 88 2z m56 -6 c3
-8 2 -12 -4 -9 -6 3 -10 10 -10 16 0 14 7 11 14 -7z m-3534 -25 c0 -6 -4 -7
-10 -4 -5 3 -10 11 -10 16 0 6 5 7 10 4 6 -3 10 -11 10 -16z m3581 -34 c9 -25
15 -45 13 -45 -5 0 -30 51 -39 80 -12 40 8 13 26 -35z m-3786 8 c-9 -21 -21
-42 -26 -48 -9 -8 14 55 28 78 13 21 11 2 -2 -30z m1785 -38 c7 -9 8 -15 2
-15 -5 0 -12 7 -16 15 -3 8 -4 15 -2 15 2 0 9 -7 16 -15z m79 -438 l65 -68
-70 -69 -69 -69 -65 70 -65 69 65 70 c35 39 67 69 70 68 3 -2 34 -34 69 -71z
m1198 -57 c108 0 194 -3 190 -6 -10 -10 -593 -15 -802 -7 l-190 8 290 5 c160
3 296 4 303 3 8 -2 102 -3 209 -3z m-1729 -5 c-8 -8 -777 -12 -893 -5 -55 4
125 7 399 8 275 1 497 0 494 -3z"/>
<path d="M6116 10017 c-69 -171 -177 -445 -241 -607 -63 -162 -120 -305 -125
-318 -6 -13 -10 -27 -10 -32 0 -4 60 -7 133 -5 72 1 295 3 495 4 l363 1 -6 23
c-9 29 -206 544 -351 917 -63 163 -114 301 -114 307 0 50 -34 -19 -144 -290z"/>
<path d="M5793 9033 c26 -2 67 -2 90 0 23 2 2 3 -48 3 -49 0 -68 -1 -42 -3z"/>
<path d="M5616 8823 c-6 -14 -5 -15 5 -6 7 7 10 15 7 18 -3 3 -9 -2 -12 -12z"/>
<path d="M5581 8734 c0 -11 3 -14 6 -6 3 7 2 16 -1 19 -3 4 -6 -2 -5 -13z"/>
<path d="M5466 8544 c-4 -9 -4 -19 -1 -22 2 -3 7 3 11 12 4 9 4 19 1 22 -2 3
-7 -3 -11 -12z"/>
<path d="M5482 8520 c-6 -11 -12 -22 -12 -25 0 -11 20 6 30 26 14 25 -2 25
-18 -1z"/>
<path d="M7340 7535 c0 -5 5 -17 10 -25 5 -8 10 -10 10 -5 0 6 -5 17 -10 25
-5 8 -10 11 -10 5z"/>
<path d="M4610 9876 c0 -2 8 -10 18 -17 15 -13 16 -12 3 4 -13 16 -21 21 -21
13z"/>
<path d="M4559 9793 c-13 -16 -12 -17 4 -4 9 7 17 15 17 17 0 8 -8 3 -21 -13z"/>
<path d="M4473 9769 c-6 -6 -9 -18 -5 -27 4 -11 1 -14 -9 -10 -9 4 -20 -2 -27
-13 -7 -10 -8 -19 -3 -19 6 0 13 5 16 11 4 6 13 8 21 5 8 -3 13 -2 13 2 -1 4
0 9 1 12 2 6 7 50 5 50 0 0 -6 -5 -12 -11z"/>
<path d="M4445 9690 c-3 -6 1 -7 9 -4 18 7 21 14 7 14 -6 0 -13 -4 -16 -10z"/>
<path d="M4409 9678 c-5 -18 -6 -38 -1 -34 7 8 12 36 6 36 -2 0 -4 -1 -5 -2z"/>
<path d="M4211 9491 c-18 -22 -33 -43 -32 -47 1 -14 48 -11 48 3 0 7 -3 13 -7
13 -4 0 -7 7 -7 15 0 8 4 15 8 15 5 0 13 9 19 20 16 30 7 24 -29 -19z m-1 -39
c0 -5 -7 -9 -15 -9 -8 0 -12 4 -9 9 3 4 9 8 15 8 5 0 9 -4 9 -8z"/>
<path d="M4235 9481 c-3 -5 -1 -12 5 -16 5 -3 10 1 10 9 0 18 -6 21 -15 7z"/>
<path d="M4137 9396 c-25 -32 -25 -34 -8 -50 22 -20 32 -11 22 18 -9 22 -4 46
8 46 5 0 6 -12 3 -26 -3 -19 -1 -25 7 -20 6 4 9 11 6 16 -3 4 -1 10 4 12 5 1
4 11 -3 21 -12 16 -15 15 -39 -17z m0 -23 c-4 -3 -1 -13 6 -22 11 -14 10 -14
-5 -2 -16 12 -16 31 -1 31 4 0 3 -3 0 -7z"/>
<path d="M4081 9317 c-13 -21 -12 -21 5 -5 10 10 16 20 13 22 -3 3 -11 -5 -18
-17z"/>
<path d="M4113 9320 c-2 -24 13 -35 20 -16 3 8 0 19 -7 25 -8 7 -12 5 -13 -9z"/>
<path d="M3952 6394 c-9 -10 -5 -25 20 -68 17 -30 35 -53 40 -50 4 3 5 -1 3
-8 -7 -17 39 -80 50 -70 5 4 5 1 1 -5 -4 -7 0 -23 10 -35 11 -16 15 -18 10 -5
-5 15 -2 16 13 7 28 -14 33 11 9 41 l-20 24 16 -30 17 -30 -20 24 c-12 12 -19
27 -16 31 3 4 -18 45 -45 91 -28 46 -50 87 -50 90 0 11 -26 6 -38 -7z"/>
<path d="M4284 5929 c-5 -8 -3 -9 6 -4 9 5 11 4 6 -4 -6 -9 -11 -9 -21 -1 -8
6 -16 7 -19 2 -7 -12 28 -44 39 -35 4 5 5 2 1 -5 -8 -14 70 -99 86 -94 5 1 6
-2 3 -9 -4 -6 3 -20 15 -31 21 -19 22 -19 36 -2 14 18 14 17 4 -4 -14 -30 -6
-39 17 -21 16 13 17 12 5 -3 -15 -19 -18 -15 40 -67 23 -20 29 -21 46 -10 18
13 11 23 -119 157 -88 92 -140 138 -145 131z m146 -155 c0 -8 -19 -13 -24 -6
-3 5 1 9 9 9 8 0 15 -2 15 -3z m85 -94 c-3 -5 -1 -10 6 -10 7 0 10 -3 6 -6 -9
-9 -28 6 -22 17 4 5 8 9 11 9 3 0 2 -4 -1 -10z"/>
<path d="M8972 8160 c0 -14 2 -19 5 -12 2 6 2 18 0 25 -3 6 -5 1 -5 -13z"/>
<path d="M8992 7970 c0 -14 2 -19 5 -12 2 6 2 18 0 25 -3 6 -5 1 -5 -13z"/>
<path d="M9004 7745 c0 -55 1 -76 3 -47 2 29 2 74 0 100 -2 26 -3 2 -3 -53z"/>
<path d="M8976 7405 c-3 -9 -6 -24 -5 -33 0 -9 5 -4 10 12 9 32 6 48 -5 21z"/>
<path d="M8962 7280 c0 -14 2 -19 5 -12 2 6 2 18 0 25 -3 6 -5 1 -5 -13z"/>
<path d="M8892 7110 c0 -14 2 -19 5 -12 2 6 2 18 0 25 -3 6 -5 1 -5 -13z"/>
<path d="M8931 7114 c0 -11 3 -14 6 -6 3 7 2 16 -1 19 -3 4 -6 -2 -5 -13z"/>
<path d="M8852 6955 c-6 -13 -7 -27 -3 -30 5 -2 12 7 15 21 9 35 2 40 -12 9z"/>
<path d="M8885 6939 c-4 -6 -5 -12 -2 -15 2 -3 7 2 10 11 7 17 1 20 -8 4z"/>
<path d="M8797 6799 c-3 -11 2 -34 12 -50 l18 -29 10 35 c7 23 8 33 1 29 -6
-4 -8 2 -4 17 l6 24 -11 -22 c-15 -28 -29 -30 -22 -3 3 11 3 20 0 20 -2 0 -7
-9 -10 -21z"/>
<path d="M8786 6665 c-9 -26 -7 -32 5 -12 6 10 9 21 6 23 -2 3 -7 -2 -11 -11z"/>
<path d="M8737 6635 c-4 -8 -2 -17 3 -20 6 -4 10 3 10 14 0 25 -6 27 -13 6z"/>
<path d="M8760 6613 c0 -21 3 -24 9 -14 5 8 7 20 4 28 -8 21 -13 15 -13 -14z"/>
<path d="M8706 6539 c4 -8 30 -6 38 2 3 3 -5 5 -19 5 -13 0 -22 -3 -19 -7z"/>
<path d="M8682 6518 c-16 -16 -15 -23 4 -42 8 -9 11 -16 5 -16 -5 0 -13 5 -16
10 -12 20 -36 -10 -25 -30 6 -10 7 -26 4 -35 -6 -14 -8 -14 -21 2 -8 10 -11
12 -8 5 4 -7 -1 -22 -12 -34 -10 -11 -18 -31 -18 -44 -1 -22 0 -22 17 -7 10 8
15 20 12 24 -3 5 -1 16 4 25 6 11 11 13 16 5 4 -6 2 -11 -4 -11 -7 0 -10 -6
-7 -14 3 -7 -2 -24 -10 -37 -9 -12 -11 -19 -5 -15 18 11 50 79 44 95 -3 8 0
11 7 7 8 -5 8 0 1 19 -14 36 -12 45 3 18 l13 -23 17 29 c20 34 13 69 -9 50
-17 -14 -19 2 -2 19 7 7 10 12 7 12 -3 0 -10 -5 -17 -12z"/>
<path d="M8526 6237 l-18 -32 21 25 c13 16 21 20 21 11 0 -8 3 -12 6 -8 3 3 2
13 -3 21 -7 13 -12 10 -27 -17z"/>
<path d="M8555 6209 c-4 -6 -5 -12 -2 -15 2 -3 7 2 10 11 7 17 1 20 -8 4z"/>
<path d="M8475 6160 c-11 -19 -18 -41 -17 -47 2 -7 -5 -13 -15 -14 -14 0 -15
-2 -3 -6 8 -3 19 -11 23 -17 6 -7 7 -4 3 7 -4 13 -1 17 11 15 10 -2 22 7 29
20 6 13 17 29 23 35 6 6 11 15 11 20 0 5 -9 -1 -19 -14 -16 -20 -22 -22 -33
-11 -11 11 -10 12 3 7 10 -4 19 0 23 10 3 9 2 14 -3 10 -5 -3 -11 1 -14 7 -2
7 -12 -3 -22 -22z"/>
<path d="M8366 6007 c-27 -34 -63 -76 -79 -93 -18 -21 -25 -34 -18 -39 15 -8
4 -26 -12 -19 -7 2 -28 -12 -47 -31 -34 -36 -35 -37 -15 -52 16 -13 17 -15 3
-10 -18 6 -25 -7 -10 -17 12 -7 95 79 98 101 2 10 -1 22 -7 29 -6 7 -2 17 11
29 20 18 29 8 9 -12 -7 -7 -6 -12 5 -16 23 -9 70 51 55 69 -6 8 -16 11 -22 7
-6 -4 -7 -1 -3 6 5 7 10 10 13 7 7 -7 32 17 26 26 -2 4 3 5 11 2 13 -5 12 -9
-6 -23 -17 -14 -18 -18 -5 -18 16 0 63 84 53 94 -2 2 -7 -5 -11 -16 -3 -12
-11 -21 -16 -21 -13 0 -11 7 7 35 29 44 10 27 -40 -38z m-92 -179 c-4 -7 -9
-7 -13 0 -10 16 -35 -3 -28 -22 3 -8 1 -18 -5 -22 -7 -5 -8 -2 -3 6 6 10 4 12
-10 6 -16 -6 -16 -4 -4 11 22 30 40 42 55 36 8 -3 11 -10 8 -15z"/>
<path d="M7828 5481 c-4 -10 -173 -129 -205 -144 -13 -6 -22 -17 -21 -25 2 -8
-4 -17 -12 -19 -13 -4 -13 -3 0 6 30 21 -6 10 -50 -16 -25 -14 -65 -37 -90
-50 -45 -23 -45 -23 -10 -17 19 3 53 15 75 25 22 11 32 17 23 14 -10 -2 -18 0
-18 5 0 6 6 10 14 10 8 0 23 3 33 6 15 5 15 4 3 -5 -8 -6 -11 -11 -6 -11 10 0
234 139 241 151 3 4 0 11 -6 14 -6 5 2 18 23 36 18 15 28 28 21 29 -6 0 -13
-4 -15 -9z m-125 -116 c-3 -9 -24 -25 -47 -36 -27 -13 -34 -14 -19 -3 12 9 32
24 44 35 27 23 30 24 22 4z"/>
<path d="M5023 8863 c15 -2 37 -2 50 0 12 2 0 4 -28 4 -27 0 -38 -2 -22 -4z"/>
<path d="M4941 8694 c0 -11 3 -14 6 -6 3 7 2 16 -1 19 -3 4 -6 -2 -5 -13z"/>
<path d="M4989 8533 c-2 -16 -2 -111 2 -213 l5 -185 2 213 c2 199 -1 250 -9
185z"/>
<path d="M4952 8460 c0 -78 1 -81 8 -33 4 29 4 67 0 85 -6 24 -8 10 -8 -52z"/>
<path d="M5175 8375 c11 -16 20 -31 21 -33 1 -2 1 8 0 22 0 13 -3 22 -5 20 -2
-2 -11 2 -19 9 -11 8 -10 3 3 -18z"/>
<path d="M4953 8230 c0 -25 2 -35 4 -22 2 12 2 32 0 45 -2 12 -4 2 -4 -23z"/>
<path d="M4991 8114 c0 -11 3 -14 6 -6 3 7 2 16 -1 19 -3 4 -6 -2 -5 -13z"/>
<path d="M5596 8097 c3 -10 9 -15 12 -12 3 3 0 11 -7 18 -10 9 -11 8 -5 -6z"/>
<path d="M5635 8030 c3 -5 8 -10 11 -10 2 0 4 5 4 10 0 6 -5 10 -11 10 -5 0
-7 -4 -4 -10z"/>
<path d="M4950 7960 c0 -40 3 -71 6 -67 7 7 7 128 -1 135 -3 3 -5 -28 -5 -68z"/>
<path d="M4990 7636 c0 -189 -3 -351 -6 -360 -15 -40 -20 -5 -17 132 2 81 -1
210 -6 287 -6 110 -8 33 -10 -355 -1 -272 -3 -533 -6 -580 -3 -73 -2 -79 6
-40 5 25 9 55 9 67 0 12 7 34 15 49 14 27 14 27 18 -27 2 -30 4 222 5 559 1
336 0 612 -3 612 -3 0 -5 -155 -5 -344z m-1 -568 c-1 -51 -4 -84 -6 -73 -3 11
-8 22 -12 25 -10 8 -1 140 10 140 5 0 8 -42 8 -92z"/>
<path d="M5740 7867 c0 -14 34 -77 42 -77 4 0 -2 17 -14 38 -26 44 -28 47 -28
39z"/>
<path d="M5875 7630 c3 -5 8 -10 11 -10 2 0 4 5 4 10 0 6 -5 10 -11 10 -5 0
-7 -4 -4 -10z"/>
<path d="M5890 7597 c0 -10 8 -17 18 -17 9 0 13 4 7 8 -5 4 -13 11 -17 16 -5
5 -8 2 -8 -7z"/>
<path d="M5920 7561 c0 -6 4 -13 10 -16 6 -3 7 1 4 9 -7 18 -14 21 -14 7z"/>
<path d="M5686 7537 c3 -10 9 -15 12 -12 3 3 0 11 -7 18 -10 9 -11 8 -5 -6z"/>
<path d="M5726 7467 c3 -10 9 -15 12 -12 3 3 0 11 -7 18 -10 9 -11 8 -5 -6z"/>
<path d="M5996 7437 c3 -10 9 -15 12 -12 3 3 0 11 -7 18 -10 9 -11 8 -5 -6z"/>
<path d="M5770 7400 c6 -11 13 -20 16 -20 2 0 0 9 -6 20 -6 11 -13 20 -16 20
-2 0 0 -9 6 -20z"/>
<path d="M5820 7325 c0 -5 5 -17 10 -25 5 -8 10 -10 10 -5 0 6 -5 17 -10 25
-5 8 -10 11 -10 5z"/>
<path d="M6481 7267 c-13 -21 -12 -21 5 -5 10 10 16 20 13 22 -3 3 -11 -5 -18
-17z"/>
<path d="M6509 7263 c-13 -16 -12 -17 4 -4 9 7 17 15 17 17 0 8 -8 3 -21 -13z"/>
<path d="M6082 7240 c0 -14 2 -19 5 -12 2 6 2 18 0 25 -3 6 -5 1 -5 -13z"/>
<path d="M5890 7196 c0 -2 8 -10 18 -17 15 -13 16 -12 3 4 -13 16 -21 21 -21
13z"/>
<path d="M5967 7113 c5 -11 3 -14 -6 -9 -8 6 -7 -2 3 -22 19 -37 36 -50 29
-22 -3 11 -9 20 -14 20 -5 0 -7 11 -3 25 4 15 2 25 -5 25 -6 0 -8 -7 -4 -17z"/>
<path d="M6342 7053 c-5 -10 -7 -24 -4 -32 3 -10 0 -11 -9 -5 -12 7 -12 5 0
-9 7 -9 20 -17 28 -17 13 0 13 2 2 17 -11 13 -11 17 -1 20 6 3 12 9 12 14 0 6
-5 7 -12 3 -8 -5 -9 -2 -5 9 8 22 0 22 -11 0z"/>
<path d="M6376 7025 c-3 -8 -1 -15 4 -15 6 0 10 7 10 15 0 8 -2 15 -4 15 -2 0
-6 -7 -10 -15z"/>
<path d="M6244 6856 c1 -16 8 -31 16 -34 12 -4 13 -2 3 9 -10 10 -10 16 0 28
8 10 8 13 0 8 -6 -4 -13 -1 -16 5 -3 7 -4 0 -3 -16z"/>
<path d="M5000 6718 c0 -9 -3 -18 -7 -21 -5 -2 -2 -2 5 -1 6 2 12 1 12 -3 0
-10 -49 -51 -54 -45 -3 3 -6 3 -6 -1 0 -3 7 -13 16 -21 8 -9 11 -16 5 -16 -18
0 -12 -18 7 -23 9 -3 -10 -6 -43 -7 -59 -3 -59 -3 28 -12 74 -7 90 -6 103 7 9
8 20 12 26 9 7 -4 8 -2 4 4 -4 7 -17 17 -29 22 -19 10 -20 9 -5 -3 15 -12 15
-14 -5 -27 -20 -12 -21 -12 -9 3 9 10 10 17 2 22 -6 3 -8 10 -5 15 3 4 -6 32
-20 62 -14 29 -25 46 -25 36z m0 -78 c0 -5 -5 -10 -11 -10 -5 0 -7 5 -4 10 3
6 8 10 11 10 2 0 4 -4 4 -10z"/>
<path d="M4921 6690 c-1 -8 -8 -27 -15 -42 -8 -16 -11 -28 -7 -28 12 0 34 57
28 72 -4 10 -6 9 -6 -2z"/>
<path d="M4805 6576 l-30 -13 40 2 c58 3 62 4 45 15 -19 12 -18 12 -55 -4z"/>
<path d="M5118 6568 c6 -6 18 -8 28 -6 14 3 12 5 -9 10 -19 3 -25 2 -19 -4z"/>
<path d="M7681 7004 c0 -11 3 -14 6 -6 3 7 2 16 -1 19 -3 4 -6 -2 -5 -13z"/>
<path d="M7681 6863 c-1 -67 -5 -93 -13 -93 -8 -1 -6 -6 5 -14 9 -7 17 -23 17
-34 0 -11 4 -23 9 -26 5 -4 7 2 5 11 -3 10 -8 70 -13 133 l-8 115 -2 -92z"/>
<path d="M7461 6881 c-1 -40 3 -61 8 -55 6 5 6 32 2 64 l-9 55 -1 -64z"/>
<path d="M7652 6850 c0 -14 2 -19 5 -12 2 6 2 18 0 25 -3 6 -5 1 -5 -13z"/>
<path d="M7492 6835 c0 -16 2 -22 5 -12 2 9 2 23 0 30 -3 6 -5 -1 -5 -18z"/>
<path d="M7480 6780 c0 -14 5 -32 10 -40 8 -12 10 -10 10 10 0 14 -5 32 -10
40 -8 12 -10 10 -10 -10z"/>
<path d="M7510 6773 c0 -21 3 -24 9 -14 5 8 7 20 4 28 -8 21 -13 15 -13 -14z"/>
<path d="M7497 6690 c-3 -13 0 -20 9 -20 15 0 19 26 5 34 -5 3 -11 -3 -14 -14z"/>
<path d="M7593 6689 c-2 -23 3 -25 10 -4 4 8 3 16 -1 19 -4 3 -9 -4 -9 -15z"/>
<path d="M7402 6630 c-25 -33 -27 -40 -10 -40 6 0 9 3 5 6 -8 8 16 33 26 27 4
-3 3 -11 -4 -19 -7 -8 -7 -14 -1 -14 14 0 23 28 11 36 -6 3 -8 12 -5 20 8 21
2 17 -22 -16z"/>
<path d="M7726 6633 c-6 -14 -5 -15 5 -6 7 7 10 15 7 18 -3 3 -9 -2 -12 -12z"/>
<path d="M7585 6630 c-3 -5 -1 -10 4 -10 6 0 11 5 11 10 0 6 -2 10 -4 10 -3 0
-8 -4 -11 -10z"/>
<path d="M7538 6593 c12 -2 32 -2 45 0 12 2 2 4 -23 4 -25 0 -35 -2 -22 -4z"/>
<path d="M7333 6583 c-25 -10 -12 -22 22 -20 37 2 45 11 19 21 -18 7 -23 7
-41 -1z"/>
<path d="M7680 6570 l-85 -6 80 -2 c44 -1 87 3 95 8 8 5 11 9 5 8 -5 -1 -48
-5 -95 -8z"/>
<path d="M7820 6569 c0 -5 11 -9 25 -9 14 0 25 2 25 4 0 2 -11 6 -25 8 -14 3
-25 1 -25 -3z"/>
<path d="M6271 6483 l266 -3 22 -101 c11 -55 21 -108 21 -119 0 -10 5 -22 11
-26 8 -5 10 1 6 17 -3 13 -16 72 -28 132 l-24 107 -270 -2 -270 -3 266 -2z"/>
<path d="M6002 6418 c-24 -94 -41 -186 -46 -243 -4 -48 -3 -53 4 -25 5 19 12
57 15 83 3 26 12 74 20 105 20 84 27 122 22 122 -2 0 -9 -19 -15 -42z"/>
<path d="M7065 6451 c-3 -6 1 -21 10 -33 16 -23 16 -23 9 7 -8 37 -10 39 -19
26z"/>
<path d="M7046 6404 c-4 -9 -4 -19 -1 -22 3 -3 5 0 5 7 0 7 4 9 10 6 6 -3 7 1
4 9 -8 20 -10 20 -18 0z"/>
<path d="M7082 6350 c0 -19 3 -55 7 -80 l8 -45 1 50 c0 28 -4 64 -8 80 l-8 30
0 -35z"/>
<path d="M7047 6310 c-3 -11 -1 -18 3 -15 5 3 10 -1 13 -7 7 -21 17 -4 10 20
-7 27 -19 28 -26 2z"/>
<path d="M7016 6305 c-3 -9 -6 -22 -5 -28 0 -7 5 -1 10 12 5 13 8 26 5 28 -2
2 -6 -3 -10 -12z"/>
<path d="M6998 6237 c-3 -13 -1 -32 3 -43 7 -17 8 -17 8 4 1 14 5 21 12 16 7
-4 7 2 -1 17 -17 33 -17 33 -22 6z"/>
<path d="M6992 6145 c0 -16 2 -22 5 -12 2 9 2 23 0 30 -3 6 -5 -1 -5 -18z"/>
<path d="M6038 5960 c2 -16 7 -30 11 -30 4 0 7 -10 7 -22 -1 -13 4 -23 11 -23
6 0 15 -4 20 -9 5 -5 3 -6 -4 -2 -31 18 5 -46 41 -74 50 -38 121 -70 158 -70
50 0 150 53 184 97 19 26 22 33 10 33 -9 0 -16 7 -16 15 0 25 -2 29 -27 59
-13 16 -22 35 -19 42 4 12 -29 14 -188 14 l-193 0 5 -30z m115 13 c-7 -2 -19
-2 -25 0 -7 3 -2 5 12 5 14 0 19 -2 13 -5z m211 -159 c16 -6 12 -24 -5 -24 -6
0 -7 5 -3 11 4 8 -1 9 -17 4 -19 -5 -21 -4 -9 4 18 13 15 12 34 5z m-174 -8
c0 -7 -40 -14 -44 -7 -3 4 6 8 20 9 13 1 24 0 24 -2z m220 -10 c0 -7 -71 -46
-83 -45 -9 0 -9 2 0 5 7 3 10 11 7 19 -4 9 0 12 14 8 11 -3 29 0 39 6 20 12
23 13 23 7z m-215 -16 c3 -5 1 -10 -4 -10 -6 0 -11 5 -11 10 0 6 2 10 4 10 3
0 8 -4 11 -10z m40 -20 c3 -5 -1 -10 -9 -10 -9 0 -16 5 -16 10 0 6 4 10 9 10
6 0 13 -4 16 -10z"/>
<path d="M6465 5980 c11 -5 14 -9 8 -9 -7 -1 -13 -6 -13 -12 0 -5 5 -7 10 -4
6 3 14 -4 19 -17 l10 -23 1 25 2 25 8 -25 c4 -14 9 -18 9 -10 1 8 4 25 7 38 6
20 3 22 -37 21 -34 0 -39 -2 -24 -9z"/>
<path d="M1870 4075 c-12 -27 -62 -149 -111 -270 l-88 -220 216 -3 c119 -1
218 -1 220 2 4 3 -68 184 -191 481 l-24 60 -22 -50z"/>
<path d="M5088 4078 c-9 -24 -54 -136 -101 -249 -47 -113 -88 -215 -91 -227
l-7 -22 220 0 c122 0 221 1 221 3 0 2 -34 87 -76 188 -41 101 -90 221 -107
266 -18 46 -34 83 -37 83 -3 0 -13 -19 -22 -42z"/>
<path d="M10667 4114 c-2 -5 -45 -110 -95 -234 -50 -124 -98 -242 -106 -262
l-16 -38 221 0 220 0 -7 23 c-27 87 -211 520 -217 511z"/>
<path d="M4135 2690 c3 -5 11 -10 16 -10 6 0 7 5 4 10 -3 6 -11 10 -16 10 -6
0 -7 -4 -4 -10z"/>
<path d="M3935 2680 c-3 -5 -1 -10 4 -10 6 0 11 5 11 10 0 6 -2 10 -4 10 -3 0
-8 -4 -11 -10z"/>
<path d="M6691 2715 c-19 -8 -31 -18 -28 -21 3 -3 14 -1 25 5 35 19 39 12 5
-9 -83 -50 -85 -185 -3 -234 36 -21 104 -21 140 1 39 23 64 82 57 133 -3 22
-1 40 4 40 20 0 9 -95 -16 -137 -27 -49 -15 -59 14 -12 65 106 3 236 -116 246
-29 2 -61 -3 -82 -12z m164 -36 c20 -18 33 -34 30 -37 -3 -3 -13 5 -22 17 -8
13 -30 29 -47 37 -18 7 -24 13 -14 14 10 0 33 -14 53 -31z"/>
<path d="M4562 2655 c-7 -15 -11 -30 -8 -32 7 -7 28 36 24 49 -2 6 -9 -2 -16
-17z"/>
<path d="M8816 2675 c20 -31 11 -79 -19 -100 -13 -9 -48 -16 -92 -17 l-70 -1
55 -6 c52 -6 56 -8 92 -59 20 -30 39 -59 41 -65 2 -7 8 -9 12 -5 4 4 -9 29
-29 56 -41 57 -43 67 -17 82 37 19 51 41 51 79 0 35 -14 61 -32 61 -5 0 -1
-11 8 -25z"/>
<path d="M7562 2648 l3 -53 60 -3 c50 -2 64 1 83 18 26 24 28 52 6 74 -11 12
-35 16 -86 16 l-70 0 4 -52z"/>
<path d="M7725 2550 c3 -5 11 -10 16 -10 6 0 7 5 4 10 -3 6 -11 10 -16 10 -6
0 -7 -4 -4 -10z"/>
<path d="M6237 1979 c-56 -58 -58 -61 -41 -80 9 -10 21 -16 27 -12 5 3 7 2 4
-4 -3 -5 11 -26 31 -46 36 -35 39 -36 60 -21 12 8 20 20 16 25 -3 5 -1 8 4 7
5 -2 25 14 45 34 l35 37 -22 21 c-13 11 -26 18 -29 15 -4 -3 -5 -2 -2 2 7 9
-36 54 -45 48 -4 -3 -7 3 -6 12 2 33 -21 22 -77 -38z"/>
</g>
</svg>
